{"title":"Zumbo's Just Desserts - S01E06 - Arnott's Biscuits","uid":15758821,"size":461519564,"categoryP":"video","categoryS":"tv_shows","magnet":"?xt=urn:btih:16ed2cf6a878f2eea4267de24b141ef6050598ce&amp;dn=Zumbo%27s+Just+Desserts+-+S01E06+-+Arnott%27s+Biscuits&amp;tr=udp%3A%2F%2Ftracker.leechers-paradise.org%3A6969&amp;tr=udp%3A%2F%2Fzer0day.ch%3A1337&amp;tr=udp%3A%2F%2Fopen.demonii.com%3A1337&amp;tr=udp%3A%2F%2Ftracker.coppersurfer.tk%3A6969&amp;tr=udp%3A%2F%2Fexodus.desync.com%3A6969","seeders":7,"leechers":4,"uploader":"Bullrout","files":1,"time":1473085136,"description":"Zumbo's Just Desserts - S01E06 - Arnott's Biscuits\r\n\r\nThe remaining dessert makers must take their favourite Arnott's biscuit and turn it into an amazing new dessert. One dessert maker suffers an epic meltdown as the heat rises in the kitchen.\r\n\r\nComplete name                            : Zumbo's Just Desserts - S01E06 - Arnott's Biscuits.mp4\r\nFormat                                   : MPEG-4\r\nFormat profile                           : Base Media / Version 2\r\nCodec ID                                 : mp42 (mp42/isom/avc1)\r\nFile size                                : 440 MiB\r\nDuration                                 : 55mn 18s\r\nOverall bit rate mode                    : Variable\r\nOverall bit rate                         : 1 113 Kbps\r\n\r\nVideo\r\nID                                       : 2\r\nFormat                                   : AVC\r\nFormat/Info                              : Advanced Video Codec\r\nFormat profile                           :   \r\nFormat settings, CABAC                   : Yes\r\nFormat settings, ReFrames                : 3 frames\r\nCodec ID                                 : avc1\r\nCodec ID/Info                            : Advanced Video Coding\r\nDuration                                 : 55mn 18s\r\nBit rate mode                            : Variable\r\nBit rate                                 : 981 Kbps\r\nMaximum bit rate                         : 1 000 Kbps\r\nWidth                                    : 720 pixels\r\nHeight                                   : 404 pixels\r\nDisplay aspect ratio                     : 16:9\r\nOriginal display aspect ratio            : 16:9\r\nFrame rate mode                          : Constant\r\nFrame rate                               : 25.000 fps\r\nStandard                                 : PAL\r\nColor space                              : YUV\r\nChroma subsampling                       : 4:2:0\r\nBit depth                                : 8 bits\r\nScan type                                : Progressive\r\nBits/(Pixel*Frame)                       : 0.135\r\nStream size                              : 388 MiB (88%)\r\nWriting library                          : x264 core 112\r\nColor range                              : Limited\r\nColor primaries                          : BT.601 PAL\r\nTransfer characteristics                 : BT.470 System B, BT.470 System G\r\nMatrix coefficients                      : BT.601\r\n\r\nAudio\r\nID                                       : 1\r\nFormat                                   : AAC\r\nFormat/Info                              : Advanced Audio Codec\r\nFormat profile                           : LC\r\nCodec ID                                 : 40\r\nDuration                                 : 55mn 18s\r\nBit rate mode                            : Variable\r\nBit rate                                 : 128 Kbps\r\nMaximum bit rate                         : 576 Kbps\r\nChannel(s)                               : 2 channels\r\nChannel positions                        : Front: L R\r\nSampling rate                            : 48.0 KHz\r\nFrame rate                               : 46.875 fps (1024 spf)\r\nCompression mode                         : Lossy\r\nStream size                              : 50.6 MiB (12%)","torrent":{"xt":"urn:btih:16ed2cf6a878f2eea4267de24b141ef6050598ce","amp;dn":"Zumbo%27s+Just+Desserts+-+S01E06+-+Arnott%27s+Biscuits","amp;tr":["udp%3A%2F%2Ftracker.leechers-paradise.org%3A6969","udp%3A%2F%2Fzer0day.ch%3A1337","udp%3A%2F%2Fopen.demonii.com%3A1337","udp%3A%2F%2Ftracker.coppersurfer.tk%3A6969","udp%3A%2F%2Fexodus.desync.com%3A6969"],"infoHash":"16ed2cf6a878f2eea4267de24b141ef6050598ce","infoHashBuffer":{"type":"Buffer","data":[22,237,44,246,168,120,242,238,164,38,125,226,75,20,30,246,5,5,152,206]},"announce":[],"urlList":[]}}